<svg width="34" height="24" viewBox="0 0 34 24" fill="none" xmlns="http://www.w3.org/2000/svg">
<rect x="18.36" y="7.80005" width="2.72" height="9" rx="1.36" fill="#F2F2F2"/>
<rect x="18.36" y="1.19995" width="2.72" height="4.8" rx="1.36" fill="#F2F2F2"/>
<rect x="18.36" y="18.6" width="2.72" height="4.8" rx="1.36" fill="#F2F2F2"/>
<path d="M1.5 6.02355C1.5 3.52526 3.52526 1.5 6.02355 1.5H28.1465C30.5362 1.5 32.5 3.47863 32.5 5.89773C32.5 6.11111 32.4296 6.36626 32.2169 6.72386C31.9963 7.0949 31.6953 7.46251 31.3001 7.94519L31.2753 7.97543C31.2506 8.00563 31.2252 8.03662 31.1991 8.06837C30.5082 8.90923 29.3713 10.2929 29.5384 12.0854C29.6857 13.6648 30.6564 14.8628 31.303 15.6609C31.3459 15.7139 31.3874 15.7651 31.4271 15.8145C32.1914 16.7657 32.5 17.2609 32.5 17.8112V17.989C32.5 20.4804 30.4804 22.5 27.989 22.5H6.03746C3.53149 22.5 1.5 20.4685 1.5 17.9625V17.4949C1.5 17.0512 1.76727 16.6216 2.5157 15.6885C2.54617 15.6505 2.57789 15.6112 2.61066 15.5706C3.22002 14.8157 4.19118 13.6126 4.22202 12.0346C4.25388 10.4043 3.24723 9.16731 2.62806 8.40647C2.59866 8.37035 2.57014 8.3353 2.54264 8.30133C1.77275 7.35028 1.5 6.92399 1.5 6.48468V6.02355Z" stroke="#F2F2F2" stroke-width="3"/>
</svg>
